<?xml version="1.0" encoding="UTF-8" standalone="no"?>
<svg
   width="44"
   height="24"
   viewBox="0 0 58 32"
   version="1.1"
   id="svg4"
   sodipodi:docname="logonubank.svg"
   inkscape:version="1.1.1 (3bf5ae0d25, 2021-09-20)"
   xmlns:inkscape="http://www.inkscape.org/namespaces/inkscape"
   xmlns:sodipodi="http://sodipodi.sourceforge.net/DTD/sodipodi-0.dtd"
   xmlns="http://www.w3.org/2000/svg"
   xmlns:svg="http://www.w3.org/2000/svg">
  <defs
     id="defs8" />
  <sodipodi:namedview
     id="namedview6"
     pagecolor="#ffffff"
     bordercolor="#666666"
     borderopacity="1.0"
     inkscape:pageshadow="2"
     inkscape:pageopacity="0.0"
     inkscape:pagecheckerboard="0"
     showgrid="false"
     inkscape:zoom="2.8763312"
     inkscape:cx="69.359189"
     inkscape:cy="-4.693479"
     inkscape:window-width="1366"
     inkscape:window-height="691"
     inkscape:window-x="0"
     inkscape:window-y="0"
     inkscape:window-maximized="1"
     inkscape:current-layer="svg4" />
  <path
     d="M10.47 3.052C12.304 1.126 14.737 0 17.595 0c5.568 0 9.26 4.065 9.966 10.156.23 1.977.227 4.766.225 7.996v13.106h-7.658v-8.949s-.015-7.659-.062-9.09C19.86 6.984 16.17 3.067 10.469 3.063 8.75 4.88 7.828 7.102 7.692 10.499c-.019.473-.014 2.153-.008 4.366.003 1.147.007 2.437.008 3.777.005 5.833 0 12.617 0 12.617H.035V17.487c0-.472-.009-.948-.018-1.426-.017-.96-.034-1.93.018-2.888.086-1.599.363-3.17 1.109-4.63C2.85 5.198 6.35 3.044 10.08 3.044c.13 0 .26.003.39.008ZM57.965 18.827c.052-.959.035-1.927.018-2.888a78.532 78.532 0 0 1-.018-1.426V.741h-7.657s-.005 6.784 0 12.617c.001 1.34.005 2.63.008 3.776.006 2.214.01 3.893-.008 4.367-.136 3.397-1.057 5.619-2.777 7.436-5.7-.004-9.391-3.922-9.597-10.156-.046-1.431-.066-4.983-.066-9.097V.735l-7.652.007v13.106c-.003 3.23-.005 6.018.224 7.996C31.145 27.934 34.837 32 40.405 32c2.858 0 5.291-1.126 7.125-3.052.13.005.26.008.39.008 3.73 0 7.229-2.154 8.936-5.498.746-1.46 1.023-3.032 1.11-4.63Z"
     class="sc-pQEbo yAvEL"
     id="path2"
     style="fill:#ffffff;fill-opacity:1" />
</svg>
